<svg id="Layer_1" data-name="Layer 1" xmlns="http://www.w3.org/2000/svg" viewBox="0 0 200 58.4"><defs><style>.cls-1{fill:#fff;}</style></defs><title>ELEXIO</title><path class="cls-1" d="M185.2,29.2h0a15.39,15.39,0,0,0-4.8-11.6,15.22,15.22,0,0,0-5.2-3.6,18.84,18.84,0,0,0-6.8-1.6,13.15,13.15,0,0,0-6.8,1.6,16.78,16.78,0,0,0-5.6,3.6,15.22,15.22,0,0,0-3.6,5.2,18.12,18.12,0,0,0-1.2,6.4v.4a16.58,16.58,0,0,0,1.2,6.4,15.22,15.22,0,0,0,3.6,5.2,15.22,15.22,0,0,0,5.2,3.6,18.84,18.84,0,0,0,6.8,1.6,13.15,13.15,0,0,0,6.8-1.6,16.78,16.78,0,0,0,5.6-3.6A15.22,15.22,0,0,0,184,36a20.32,20.32,0,0,0,1.2-6.8m-6,.4a14.38,14.38,0,0,1-.8,4.4c-.4,1.2-1.6,2.4-2.4,3.6a7.19,7.19,0,0,1-3.6,2.4,8.61,8.61,0,0,1-4.4.8,8.06,8.06,0,0,1-4.4-1.2,9.45,9.45,0,0,1-3.6-2.4,18.78,18.78,0,0,1-2.4-3.6,17,17,0,0,1-.8-4.4v-.4a14.38,14.38,0,0,1,.8-4.4l2.4-3.6a7.19,7.19,0,0,1,3.6-2.4,8.61,8.61,0,0,1,4.4-.8,8.06,8.06,0,0,1,4.4,1.2,7.73,7.73,0,0,1,3.6,2,18.78,18.78,0,0,1,2.4,3.6,20.27,20.27,0,0,1,.8,5.2Z"/><polygon class="cls-1" points="14.8 45.6 39.2 45.6 39.2 40.4 20.4 40.4 20.4 31.6 37.2 31.6 37.2 26.4 20.4 26.4 20.4 18 39.2 18 39.2 12.8 14.8 12.8 14.8 45.6"/><polygon class="cls-1" points="45.6 45.6 68.4 45.6 68.4 40.4 51.2 40.4 51.2 12.8 45.6 12.8 45.6 45.6"/><polygon class="cls-1" points="74 45.6 98.4 45.6 98.4 40.4 79.6 40.4 79.6 31.6 96 31.6 96 26.4 79.6 26.4 79.6 18 98.4 18 98.4 12.8 74 12.8 74 45.6"/><rect class="cls-1" x="138.4" y="12.8" width="5.6" height="32.8"/><polygon class="cls-1" points="0 0 0 58.4 128.4 58.4 125.2 53.6 4.8 53.6 4.8 4.8 195.2 4.8 195.2 53.6 139.2 53.6 121.6 28.8 133.2 12.8 126.4 12.8 118.4 24.4 110 12.8 103.2 12.8 114.8 28.8 102.8 45.6 109.6 45.6 118 33.2 135.2 58.4 200 58.4 200 0 0 0"/></svg>